<svg xmlns="http://www.w3.org/2000/svg" xmlns:xlink="http://www.w3.org/1999/xlink" width="500" zoomAndPan="magnify" viewBox="0 0 375 374.999991" height="500" preserveAspectRatio="xMidYMid meet" version="1.0"><defs><g/><clipPath id="5d83a439bc"><path d="M 106 172 L 218 172 L 218 230 L 106 230 Z M 106 172 " clip-rule="nonzero"/></clipPath><clipPath id="cd2e55f01b"><path d="M 151.199219 133.367188 L 228.339844 190.925781 L 171.605469 266.964844 L 94.460938 209.40625 Z M 151.199219 133.367188 " clip-rule="nonzero"/></clipPath><clipPath id="2a0eb3224a"><path d="M 151.199219 133.367188 L 228.339844 190.925781 L 171.605469 266.964844 L 94.460938 209.40625 Z M 151.199219 133.367188 " clip-rule="nonzero"/></clipPath><clipPath id="c4dc30bf78"><path d="M 107 172 L 220 172 L 220 230 L 107 230 Z M 107 172 " clip-rule="nonzero"/></clipPath><clipPath id="b92c34b121"><path d="M 152.574219 133.367188 L 229.714844 190.925781 L 172.980469 266.964844 L 95.835938 209.40625 Z M 152.574219 133.367188 " clip-rule="nonzero"/></clipPath><clipPath id="8b9a0daa6d"><path d="M 152.574219 133.367188 L 229.714844 190.925781 L 172.980469 266.964844 L 95.835938 209.40625 Z M 152.574219 133.367188 " clip-rule="nonzero"/></clipPath><clipPath id="3a1095cbbf"><path d="M 109 172 L 221 172 L 221 230 L 109 230 Z M 109 172 " clip-rule="nonzero"/></clipPath><clipPath id="f70395b001"><path d="M 153.949219 133.367188 L 231.089844 190.925781 L 174.355469 266.964844 L 97.210938 209.40625 Z M 153.949219 133.367188 " clip-rule="nonzero"/></clipPath><clipPath id="983a8cd27e"><path d="M 153.949219 133.367188 L 231.089844 190.925781 L 174.355469 266.964844 L 97.210938 209.40625 Z M 153.949219 133.367188 " clip-rule="nonzero"/></clipPath></defs><rect x="-37.5" width="450" fill="#ffffff" y="-37.499999" height="449.999989" fill-opacity="1"/><rect x="-37.5" width="450" fill="#ffffff" y="-37.499999" height="449.999989" fill-opacity="1"/><g fill="#005e64" fill-opacity="1"><g transform="translate(33.485741, 253.576954)"><g><path d="M 5.515625 -124.5625 L 39.296875 -124.5625 C 48.378906 -124.5625 54.972656 -122.335938 59.078125 -117.890625 C 63.191406 -113.441406 65.25 -106.191406 65.25 -96.140625 L 65.25 -90.625 C 65.25 -78.738281 60.992188 -71.632812 52.484375 -69.3125 C 57.703125 -67.957031 61.375 -64.8125 63.5 -59.875 C 65.632812 -54.945312 66.703125 -48.425781 66.703125 -40.3125 C 66.703125 -27.0625 64.71875 -17.03125 60.75 -10.21875 C 56.789062 -3.40625 49.640625 0 39.296875 0 L 5.515625 0 Z M 34.9375 -77.71875 C 37.070312 -77.71875 38.523438 -78.515625 39.296875 -80.109375 C 40.066406 -81.703125 40.453125 -83.953125 40.453125 -86.859375 L 40.453125 -99.328125 C 40.453125 -103.390625 38.664062 -105.421875 35.09375 -105.421875 L 29.875 -105.421875 L 29.875 -77.71875 Z M 32.328125 -21.890625 C 38.804688 -21.890625 42.046875 -24.984375 42.046875 -31.171875 L 42.046875 -46.6875 C 42.046875 -50.457031 41.488281 -53.304688 40.375 -55.234375 C 39.269531 -57.171875 37.316406 -58.140625 34.515625 -58.140625 L 29.875 -58.140625 L 29.875 -22.046875 Z M 32.328125 -21.890625 "/></g></g></g><g fill="#005e64" fill-opacity="1"><g transform="translate(98.595112, 253.576954)"><g/></g></g><g fill="#005e64" fill-opacity="1"><g transform="translate(128.174273, 253.576954)"><g/></g></g><g fill="#005e64" fill-opacity="1"><g transform="translate(157.753435, 253.576954)"><g/></g></g><g fill="#005e64" fill-opacity="1"><g transform="translate(187.332594, 253.576954)"><g/></g></g><g fill="#005e64" fill-opacity="1"><g transform="translate(216.919326, 253.576954)"><g><path d="M 35.09375 1.15625 C 23.78125 1.15625 15.609375 -1.644531 10.578125 -7.25 C 5.554688 -12.851562 3.046875 -21.890625 3.046875 -34.359375 L 3.046875 -46.546875 L 27.546875 -46.546875 L 27.546875 -31.03125 C 27.546875 -24.84375 29.53125 -21.75 33.5 -21.75 C 35.71875 -21.75 37.257812 -22.398438 38.125 -23.703125 C 39 -25.015625 39.4375 -27.21875 39.4375 -30.3125 C 39.4375 -34.363281 38.953125 -37.71875 37.984375 -40.375 C 37.023438 -43.039062 35.796875 -45.265625 34.296875 -47.046875 C 32.796875 -48.835938 30.113281 -51.617188 26.25 -55.390625 L 15.515625 -66.125 C 7.203125 -74.238281 3.046875 -83.226562 3.046875 -93.09375 C 3.046875 -103.726562 5.484375 -111.820312 10.359375 -117.375 C 15.242188 -122.9375 22.375 -125.71875 31.75 -125.71875 C 42.96875 -125.71875 51.039062 -122.742188 55.96875 -116.796875 C 60.894531 -110.847656 63.359375 -101.546875 63.359375 -88.890625 L 37.984375 -88.890625 L 37.84375 -97.4375 C 37.84375 -99.082031 37.382812 -100.390625 36.46875 -101.359375 C 35.550781 -102.328125 34.269531 -102.8125 32.625 -102.8125 C 30.6875 -102.8125 29.234375 -102.273438 28.265625 -101.203125 C 27.304688 -100.140625 26.828125 -98.691406 26.828125 -96.859375 C 26.828125 -92.796875 29.144531 -88.59375 33.78125 -84.25 L 48.28125 -70.328125 C 51.664062 -67.035156 54.46875 -63.914062 56.6875 -60.96875 C 58.914062 -58.019531 60.707031 -54.539062 62.0625 -50.53125 C 63.414062 -46.519531 64.09375 -41.757812 64.09375 -36.25 C 64.09375 -23.96875 61.84375 -14.660156 57.34375 -8.328125 C 52.851562 -2.003906 45.4375 1.15625 35.09375 1.15625 Z M 35.09375 1.15625 "/></g></g></g><g fill="#005e64" fill-opacity="1"><g transform="translate(279.4126, 253.576954)"><g><path d="M 16.234375 0 L 16.234375 -100.625 L 1.453125 -100.625 L 1.453125 -124.5625 L 55.96875 -124.5625 L 55.96875 -100.625 L 41.1875 -100.625 L 41.1875 0 Z M 16.234375 0 "/></g></g></g><g fill="#373431" fill-opacity="1"><g transform="translate(36.648152, 123.67893)"><g><path d="M 10.765625 -24.859375 C 12.085938 -24.859375 13.378906 -24.664062 14.640625 -24.28125 C 15.910156 -23.894531 16.847656 -23.515625 17.453125 -23.140625 L 18.34375 -22.546875 L 16.09375 -18.109375 C 15.914062 -18.222656 15.671875 -18.375 15.359375 -18.5625 C 15.046875 -18.75 14.453125 -19 13.578125 -19.3125 C 12.710938 -19.632812 11.90625 -19.796875 11.15625 -19.796875 C 10.226562 -19.796875 9.507812 -19.597656 9 -19.203125 C 8.5 -18.804688 8.25 -18.273438 8.25 -17.609375 C 8.25 -17.273438 8.367188 -16.960938 8.609375 -16.671875 C 8.847656 -16.390625 9.253906 -16.082031 9.828125 -15.75 C 10.398438 -15.425781 10.898438 -15.164062 11.328125 -14.96875 C 11.765625 -14.769531 12.4375 -14.476562 13.34375 -14.09375 C 14.925781 -13.414062 16.273438 -12.5 17.390625 -11.34375 C 18.503906 -10.195312 19.0625 -8.890625 19.0625 -7.421875 C 19.0625 -6.023438 18.804688 -4.800781 18.296875 -3.75 C 17.796875 -2.707031 17.109375 -1.890625 16.234375 -1.296875 C 15.359375 -0.710938 14.382812 -0.28125 13.3125 0 C 12.25 0.289062 11.097656 0.4375 9.859375 0.4375 C 8.785156 0.4375 7.734375 0.328125 6.703125 0.109375 C 5.679688 -0.0976562 4.828125 -0.363281 4.140625 -0.6875 C 3.453125 -1.019531 2.832031 -1.34375 2.28125 -1.65625 C 1.726562 -1.96875 1.320312 -2.234375 1.0625 -2.453125 L 0.6875 -2.78125 L 3.46875 -7.453125 C 3.695312 -7.253906 4.019531 -7.003906 4.4375 -6.703125 C 4.851562 -6.398438 5.585938 -5.988281 6.640625 -5.46875 C 7.703125 -4.957031 8.632812 -4.703125 9.4375 -4.703125 C 11.789062 -4.703125 12.96875 -5.503906 12.96875 -7.109375 C 12.96875 -7.441406 12.878906 -7.75 12.703125 -8.03125 C 12.535156 -8.320312 12.238281 -8.609375 11.8125 -8.890625 C 11.394531 -9.179688 11.019531 -9.410156 10.6875 -9.578125 C 10.363281 -9.742188 9.832031 -10 9.09375 -10.34375 C 8.351562 -10.6875 7.804688 -10.945312 7.453125 -11.125 C 5.972656 -11.851562 4.828125 -12.765625 4.015625 -13.859375 C 3.210938 -14.953125 2.8125 -16.132812 2.8125 -17.40625 C 2.8125 -19.59375 3.617188 -21.378906 5.234375 -22.765625 C 6.859375 -24.160156 8.703125 -24.859375 10.765625 -24.859375 Z M 10.765625 -24.859375 "/></g></g></g><g fill="#373431" fill-opacity="1"><g transform="translate(56.529714, 123.67893)"><g><path d="M 15.75 -24.421875 L 15.75 -19.53125 L 7.34375 -19.53125 L 7.34375 -14.671875 L 15.390625 -14.671875 L 15.390625 -9.796875 L 7.34375 -9.796875 L 7.34375 -4.890625 L 15.75 -4.890625 L 15.75 0 L 1.78125 0 L 1.78125 -24.421875 Z M 15.75 -24.421875 "/></g></g></g><g fill="#373431" fill-opacity="1"><g transform="translate(73.689395, 123.67893)"><g><path d="M 0.6875 -12.21875 C 0.6875 -15.75 1.890625 -18.738281 4.296875 -21.1875 C 6.703125 -23.632812 9.597656 -24.859375 12.984375 -24.859375 C 16.398438 -24.859375 19.300781 -23.640625 21.6875 -21.203125 C 24.070312 -18.765625 25.265625 -15.769531 25.265625 -12.21875 C 25.265625 -8.644531 24.09375 -5.640625 21.75 -3.203125 C 19.40625 -0.773438 16.484375 0.4375 12.984375 0.4375 C 9.421875 0.4375 6.476562 -0.769531 4.15625 -3.1875 C 1.84375 -5.601562 0.6875 -8.613281 0.6875 -12.21875 Z M 6.6875 -12.21875 C 6.6875 -10.9375 6.882812 -9.765625 7.28125 -8.703125 C 7.675781 -7.648438 8.363281 -6.757812 9.34375 -6.03125 C 10.332031 -5.300781 11.546875 -4.9375 12.984375 -4.9375 C 15.054688 -4.9375 16.617188 -5.644531 17.671875 -7.0625 C 18.734375 -8.488281 19.265625 -10.207031 19.265625 -12.21875 C 19.265625 -14.21875 18.726562 -15.929688 17.65625 -17.359375 C 16.582031 -18.785156 15.023438 -19.5 12.984375 -19.5 C 10.972656 -19.5 9.421875 -18.785156 8.328125 -17.359375 C 7.234375 -15.929688 6.6875 -14.21875 6.6875 -12.21875 Z M 6.6875 -12.21875 "/></g></g></g><g clip-path="url(#5d83a439bc)"><g clip-path="url(#cd2e55f01b)"><g clip-path="url(#2a0eb3224a)"><path fill="#373431" d="M 115.761719 224.964844 C 114.945312 224.351562 114.136719 223.664062 113.347656 222.886719 C 106.945312 216.582031 106.390625 208.679688 106.375 206.40625 C 106.277344 193.558594 116.648438 183.023438 129.496094 182.921875 L 146.996094 182.789062 C 147.859375 182.78125 148.566406 183.476562 148.574219 184.339844 C 148.582031 185.207031 147.886719 185.914062 147.019531 185.921875 L 129.523438 186.054688 C 118.402344 186.140625 109.421875 195.261719 109.507812 206.382812 C 109.523438 208.351562 110.003906 215.195312 115.546875 220.65625 C 116.210938 221.308594 116.894531 221.890625 117.585938 222.410156 C 122.636719 226.175781 128.117188 226.480469 129.839844 226.472656 L 148.90625 226.324219 C 160.03125 226.238281 169.007812 217.117188 168.921875 205.996094 C 168.914062 204.425781 168.726562 202.867188 168.363281 201.367188 C 167.550781 198.027344 165.820312 194.863281 163.367188 192.214844 C 162.777344 191.582031 162.8125 190.589844 163.449219 190.003906 C 164.082031 189.414062 165.074219 189.453125 165.664062 190.085938 C 168.480469 193.125 170.46875 196.769531 171.40625 200.625 C 171.828125 202.367188 172.046875 204.167969 172.054688 205.976562 C 172.152344 218.820312 161.78125 229.355469 148.933594 229.457031 L 129.859375 229.605469 C 127.328125 229.617188 121.359375 229.136719 115.761719 224.964844 Z M 160.574219 211.714844 C 161.207031 211.125 161.242188 210.136719 160.65625 209.5 C 158.199219 206.855469 156.472656 203.691406 155.660156 200.351562 C 155.292969 198.847656 155.105469 197.292969 155.101562 195.722656 C 155.058594 190.359375 157.125 185.285156 160.914062 181.433594 C 164.707031 177.582031 169.75 175.4375 175.113281 175.394531 L 194.1875 175.246094 C 199.546875 175.207031 204.625 177.269531 208.476562 181.0625 C 212.328125 184.855469 214.46875 189.898438 214.511719 195.261719 C 214.527344 197.230469 214.15625 204.082031 208.695312 209.625 C 203.265625 215.144531 196.453125 215.640625 194.5 215.660156 L 177 215.796875 C 176.136719 215.804688 175.441406 216.511719 175.445312 217.375 C 175.453125 218.242188 176.160156 218.9375 177.027344 218.929688 L 194.527344 218.796875 C 196.789062 218.769531 204.65625 218.195312 210.929688 211.824219 C 217.234375 205.421875 217.664062 197.507812 217.644531 195.238281 C 217.597656 189.035156 215.121094 183.210938 210.671875 178.832031 C 206.226562 174.449219 200.363281 172.066406 194.160156 172.113281 L 175.089844 172.261719 C 168.890625 172.308594 163.0625 174.785156 158.683594 179.234375 C 154.304688 183.679688 151.917969 189.546875 151.964844 195.738281 C 151.972656 197.550781 152.191406 199.351562 152.613281 201.09375 C 153.554688 204.949219 155.539062 208.59375 158.359375 211.632812 C 158.425781 211.703125 158.496094 211.765625 158.570312 211.824219 C 159.164062 212.265625 160.011719 212.238281 160.574219 211.714844 Z M 160.574219 211.714844 " fill-opacity="1" fill-rule="nonzero"/></g></g></g><g clip-path="url(#c4dc30bf78)"><g clip-path="url(#b92c34b121)"><g clip-path="url(#8b9a0daa6d)"><path fill="#005e64" d="M 117.136719 224.964844 C 116.320312 224.351562 115.511719 223.664062 114.722656 222.886719 C 108.320312 216.582031 107.765625 208.679688 107.75 206.40625 C 107.652344 193.558594 118.023438 183.023438 130.871094 182.921875 L 148.371094 182.789062 C 149.234375 182.78125 149.941406 183.476562 149.949219 184.339844 C 149.957031 185.207031 149.261719 185.914062 148.394531 185.921875 L 130.898438 186.054688 C 119.777344 186.140625 110.796875 195.261719 110.882812 206.382812 C 110.898438 208.351562 111.378906 215.195312 116.921875 220.65625 C 117.585938 221.308594 118.269531 221.890625 118.960938 222.410156 C 124.011719 226.175781 129.492188 226.480469 131.214844 226.472656 L 150.28125 226.324219 C 161.40625 226.238281 170.382812 217.117188 170.296875 205.996094 C 170.289062 204.425781 170.101562 202.867188 169.738281 201.367188 C 168.925781 198.027344 167.195312 194.863281 164.742188 192.214844 C 164.152344 191.582031 164.1875 190.589844 164.824219 190.003906 C 165.457031 189.414062 166.449219 189.453125 167.039062 190.085938 C 169.855469 193.125 171.84375 196.769531 172.78125 200.625 C 173.203125 202.367188 173.421875 204.167969 173.429688 205.976562 C 173.527344 218.820312 163.15625 229.355469 150.308594 229.457031 L 131.234375 229.605469 C 128.699219 229.617188 122.734375 229.136719 117.136719 224.964844 Z M 161.949219 211.714844 C 162.582031 211.125 162.617188 210.136719 162.03125 209.5 C 159.574219 206.855469 157.847656 203.691406 157.035156 200.351562 C 156.667969 198.847656 156.480469 197.292969 156.476562 195.722656 C 156.433594 190.359375 158.5 185.285156 162.289062 181.433594 C 166.082031 177.582031 171.125 175.4375 176.488281 175.394531 L 195.558594 175.246094 C 200.921875 175.207031 206 177.269531 209.851562 181.0625 C 213.703125 184.855469 215.84375 189.898438 215.886719 195.261719 C 215.902344 197.230469 215.53125 204.082031 210.070312 209.625 C 204.640625 215.144531 197.828125 215.640625 195.875 215.660156 L 178.375 215.796875 C 177.511719 215.804688 176.816406 216.511719 176.820312 217.375 C 176.828125 218.242188 177.535156 218.9375 178.398438 218.929688 L 195.902344 218.796875 C 198.164062 218.769531 206.03125 218.195312 212.304688 211.824219 C 218.609375 205.421875 219.039062 197.507812 219.019531 195.238281 C 218.972656 189.035156 216.496094 183.210938 212.046875 178.832031 C 207.601562 174.449219 201.738281 172.066406 195.535156 172.113281 L 176.464844 172.261719 C 170.265625 172.308594 164.4375 174.785156 160.058594 179.234375 C 155.679688 183.679688 153.292969 189.546875 153.339844 195.738281 C 153.347656 197.550781 153.566406 199.351562 153.988281 201.09375 C 154.929688 204.949219 156.914062 208.59375 159.734375 211.632812 C 159.800781 211.703125 159.871094 211.765625 159.945312 211.824219 C 160.539062 212.265625 161.386719 212.238281 161.949219 211.714844 Z M 161.949219 211.714844 " fill-opacity="1" fill-rule="nonzero"/></g></g></g><g clip-path="url(#3a1095cbbf)"><g clip-path="url(#f70395b001)"><g clip-path="url(#983a8cd27e)"><path fill="#373431" d="M 118.511719 224.964844 C 117.695312 224.351562 116.886719 223.664062 116.097656 222.886719 C 109.695312 216.582031 109.140625 208.679688 109.125 206.40625 C 109.027344 193.558594 119.398438 183.023438 132.246094 182.921875 L 149.746094 182.789062 C 150.609375 182.78125 151.316406 183.476562 151.324219 184.339844 C 151.332031 185.207031 150.636719 185.914062 149.769531 185.921875 L 132.273438 186.054688 C 121.152344 186.140625 112.171875 195.261719 112.257812 206.382812 C 112.273438 208.351562 112.753906 215.195312 118.296875 220.65625 C 118.960938 221.308594 119.644531 221.890625 120.335938 222.410156 C 125.386719 226.175781 130.867188 226.480469 132.589844 226.472656 L 151.65625 226.324219 C 162.78125 226.238281 171.757812 217.117188 171.671875 205.996094 C 171.664062 204.425781 171.476562 202.867188 171.113281 201.367188 C 170.300781 198.027344 168.570312 194.863281 166.117188 192.214844 C 165.527344 191.582031 165.5625 190.589844 166.199219 190.003906 C 166.832031 189.414062 167.824219 189.453125 168.414062 190.085938 C 171.230469 193.125 173.21875 196.769531 174.15625 200.625 C 174.578125 202.367188 174.796875 204.167969 174.804688 205.976562 C 174.902344 218.820312 164.53125 229.355469 151.683594 229.457031 L 132.609375 229.605469 C 130.074219 229.617188 124.109375 229.136719 118.511719 224.964844 Z M 163.324219 211.714844 C 163.957031 211.125 163.992188 210.136719 163.40625 209.5 C 160.949219 206.855469 159.222656 203.691406 158.410156 200.351562 C 158.042969 198.847656 157.855469 197.292969 157.851562 195.722656 C 157.808594 190.359375 159.875 185.285156 163.664062 181.433594 C 167.457031 177.582031 172.5 175.4375 177.863281 175.394531 L 196.933594 175.246094 C 202.296875 175.207031 207.375 177.269531 211.226562 181.0625 C 215.078125 184.855469 217.21875 189.898438 217.261719 195.261719 C 217.277344 197.230469 216.90625 204.082031 211.445312 209.625 C 206.015625 215.144531 199.203125 215.640625 197.25 215.660156 L 179.75 215.796875 C 178.886719 215.804688 178.191406 216.511719 178.195312 217.375 C 178.203125 218.242188 178.910156 218.9375 179.773438 218.929688 L 197.277344 218.796875 C 199.539062 218.769531 207.40625 218.195312 213.679688 211.824219 C 219.984375 205.421875 220.414062 197.507812 220.394531 195.238281 C 220.347656 189.035156 217.871094 183.210938 213.421875 178.832031 C 208.976562 174.449219 203.113281 172.066406 196.910156 172.113281 L 177.839844 172.261719 C 171.640625 172.308594 165.8125 174.785156 161.433594 179.234375 C 157.054688 183.679688 154.667969 189.546875 154.714844 195.738281 C 154.722656 197.550781 154.941406 199.351562 155.363281 201.09375 C 156.304688 204.949219 158.289062 208.59375 161.109375 211.632812 C 161.175781 211.703125 161.246094 211.765625 161.320312 211.824219 C 161.914062 212.265625 162.757812 212.238281 163.324219 211.714844 Z M 163.324219 211.714844 " fill-opacity="1" fill-rule="nonzero"/></g></g></g></svg>